<svg id="Capa_1" enable-background="new 0 0 504.675 504.675" height="512" viewBox="0 0 504.675 504.675" width="512" xmlns="http://www.w3.org/2000/svg"><g><path d="m420.971 299.536-31.403 48.624c-2.378 3.392-1.557 8.069 1.835 10.447 1.311.918 2.812 1.359 4.299 1.359 2.363 0 4.688-1.113 6.147-3.195l31.837-49.276 11.295-17.584c2.238-3.485 1.228-8.125-2.257-10.364-3.486-2.238-8.125-1.229-10.364 2.257 0 0-11.389 17.731-11.415 17.774" fill="#d7d0d6"/></g><g><path d="m103.94 355.305c-2.612 0-5.15-1.367-6.531-3.802l-7.404-13.056-19.056-31.016c-.036-.059-.071-.117-.105-.177l-11.34-19.645c-2.071-3.587-.841-8.174 2.746-10.245 3.587-2.072 8.174-.842 10.245 2.746l11.289 19.556 19.07 31.041c.046.075.091.15.134.227l7.469 13.17c2.043 3.603.779 8.18-2.824 10.224-1.168.662-2.44.976-3.693.977z" fill="#d7d0d6"/></g><path d="m393.779 331.28-8.616-103.154c-1.49-17.84-16.405-31.56-34.306-31.56h-197.038c-17.902 0-32.816 13.721-34.306 31.56l-8.617 103.154-6.963 71.896 300.985-5.824z" fill="#d5efc8"/><g id="XMLID_379_"><g><path d="m397.829 355.305-4.05-24.025-2.088-24.995h-278.707l-2.088 24.995-2.326 24.025z" fill="#c1e9af"/></g></g><path d="m192.698 331.28 8.616-103.154c1.49-17.84 16.405-31.56 34.307-31.56h-81.801c-17.902 0-32.816 13.72-34.307 31.56l-8.616 103.154-6.964 71.896 81.955-1.586z" fill="#c1e9af"/><path d="m363.675 331.28-8.395-100.502c-.199-2.382-2.19-4.213-4.58-4.213h-196.724c-2.39 0-4.381 1.832-4.58 4.213l-8.395 100.502-5.83 54.819h235.323z" fill="#99e6fc"/><path d="m366.663 355.305-2.989-24.025-2.088-24.995h-129.39c-20.137 0-35.973-17.213-34.296-37.281l3.415-40.879c.044-.524.101-1.044.168-1.561h-47.506c-2.39 0-4.381 1.832-4.58 4.213l-8.395 100.502-5.83 54.819h52.217l2.983-30.794h176.291z" fill="#62dbfb"/><path d="m419.868 353.024c-1.16-12.33-11.51-21.74-23.89-21.74h-287.28c-12.38 0-22.73 9.41-23.89 21.74l-7.47 79.25v14.9h350v-14.9z" fill="#ade194"/><path d="m425.547 413.273h-259.635c-8.876 0-15.827-7.637-14.994-16.474l1.86-19.731c1.16-12.33 11.51-21.74 23.89-21.74h243.417l-.217-2.298c-1.161-12.326-11.51-21.745-23.891-21.745h-287.28c-12.38 0-22.73 9.41-23.89 21.74l-7.47 79.25v14.9h350v-14.9z" fill="#97da7b"/><g><g><path d="m291.243 63.741c-4.143 0-7.5-3.358-7.5-7.5v-34.574c0-3.676-2.991-6.667-6.667-6.667h-48.477c-3.676 0-6.667 2.991-6.667 6.667v34.574c0 4.142-3.358 7.5-7.5 7.5s-7.5-3.358-7.5-7.5v-34.574c0-11.947 9.72-21.667 21.667-21.667h48.477c11.947 0 21.667 9.72 21.667 21.667v34.574c0 4.142-3.358 7.5-7.5 7.5z" fill="#fef056"/></g><g id="XMLID_382_"><g><path d="m350.918 58.604v66.07h-196.16v-66.07c0-7.38 5.98-13.36 13.37-13.36h169.42c7.39 0 13.37 5.98 13.37 13.36z" fill="#fdd79b"/></g></g><g><path d="m151.229 504.675h-37.956c-8.268 0-14.971-6.703-14.971-14.971v-39.637h67.898v39.637c0 8.268-6.703 14.971-14.971 14.971z" fill="#baafb9"/><path d="m354.447 504.675h37.956c8.268 0 14.971-6.703 14.971-14.971v-42.637h-67.899v42.637c0 8.268 6.703 14.971 14.972 14.971z" fill="#baafb9"/><path d="m341.921 403.176h36.892c7.933 0 14.364-6.431 14.364-14.364v-11.076c0-7.933-6.431-14.364-14.364-14.364h-36.892c-7.933 0-14.364 6.431-14.364 14.364v11.076c.001 7.933 6.432 14.364 14.364 14.364z" fill="#fef056"/><path d="m449.315 307.633h-10.168c-10.483 0-18.98-8.498-18.98-18.98 0-10.483 8.498-18.98 18.98-18.98h10.168c10.483 0 18.98 8.498 18.98 18.98 0 10.482-8.497 18.98-18.98 18.98z" fill="#efedef"/><path d="m55.36 307.633h10.168c10.483 0 18.98-8.498 18.98-18.98 0-10.483-8.498-18.98-18.98-18.98h-10.168c-10.483 0-18.98 8.498-18.98 18.98 0 10.482 8.498 18.98 18.98 18.98z" fill="#efedef"/><g><path d="m223.789 88.675c-8.302 0-15.032-6.73-15.032-15.032v-19.675c0-3.338 1.231-6.382 3.255-8.723h-43.885c-7.39 0-13.37 5.98-13.37 13.36v66.07h48.538 147.622v-4.637-31.363z" fill="#fccd7f"/><path d="m191.593 45.241h29.589v80.434h-29.589z" fill="#fbc56d"/><path d="m212.013 45.245h-20.419v79.43h29.589v-4.637h-12.425v-66.07c0-3.338 1.231-6.382 3.255-8.723z" fill="#e9b665"/><path d="m284.493 45.241h29.589v80.434h-29.589z" fill="#fbc56d" transform="matrix(-1 0 0 -1 598.575 170.916)"/></g><path d="m378.938 168.014v-43.51c0-9.3-7.53-16.83-16.83-16.83h-218.54c-9.3 0-16.83 7.53-16.83 16.83v43.51z" fill="#fdd79b"/><g id="XMLID_381_"><g><path d="m378.938 152.124v27.62c0 9.29-7.53 16.82-16.83 16.82h-218.54c-9.3 0-16.83-7.53-16.83-16.82v-27.62z" fill="#fccd7f"/></g></g><path d="m191.593 165.469v-55.24c0-.871.087-1.719.214-2.554h-48.24c-9.3 0-16.83 7.53-16.83 16.83v43.51h65.068c-.126-.833-.212-1.678-.212-2.546z" fill="#fccd7f"/><path d="m208.423 182.289c-9.3 0-16.83-7.53-16.83-16.82v-13.345h-64.856v27.62c0 9.29 7.53 16.82 16.83 16.82h218.54c8.432 0 15.388-6.196 16.617-14.275z" fill="#e9b665"/></g><path d="m291.528 369.754c-.87-4.26-4.62-7.32-8.97-7.32h-60.44c-4.35 0-8.1 3.06-8.97 7.32l-5.64 27.6 18.931 15.579h62.682l8.048-15.579z" fill="#e5e1e5"/><path d="m297.168 397.354h-89.66l-7.13 34.92 14.598 12.538h86.322l3-12.538z" fill="#d7d0d6"/><path d="m200.378 432.274 14.598 12.538h86.322l3-12.538-3.88-19.001h-96.161z" fill="#c9bfc8"/><path d="m427.335 462.067h-348.995c-3.809 0-6.896-3.088-6.896-6.896v-16.002c0-3.809 3.088-6.896 6.896-6.896h348.996c3.809 0 6.896 3.088 6.896 6.896v16.002c0 3.809-3.088 6.896-6.897 6.896z" fill="#e5e1e5"/><path d="m294.51 168.014h-83.344c-4.346 0-7.87-3.523-7.87-7.87v-16.048c0-4.346 3.523-7.87 7.87-7.87h83.344c4.346 0 7.87 3.523 7.87 7.87v16.048c0 4.347-3.524 7.87-7.87 7.87z" fill="#fef056"/><path d="m163.754 403.176h-36.892c-7.933 0-14.364-6.431-14.364-14.364v-11.076c0-7.933 6.431-14.364 14.364-14.364h36.892c7.933 0 14.364 6.431 14.364 14.364v11.076c0 7.933-6.431 14.364-14.364 14.364z" fill="#fef056"/><path d="m126.862 403.176h24.829c-.692-1.979-.984-4.139-.773-6.377l1.86-19.731c.496-5.271 2.681-9.999 5.976-13.696h-31.892c-7.933 0-14.364 6.431-14.364 14.364v11.076c.001 7.933 6.431 14.364 14.364 14.364z" fill="#fee903"/></g></svg>